Assam Aunty Fucked

For more visit mastitorrents

Here is a real video shot by one of my friends, when He went to the village in Golaghat, Assam for a survey on damage of floods. While in the village He met with this Lady who wanted to declare Her crops being damaged by Floods, in return She Fucked the Guy.


General
Complete name : Assam Aunty.flv
Format : Flash Video
File size : 16.8 MiB
Duration : 9mn 11s
Overall bit rate : 255 Kbps
Tagged date : UTC 2009-11-19 05:15:38
Tagging application : inlet media FLVTool2 v1.0.6 - http://www.inlet-media.de/flvtool2

Video
Format : VP6
Duration : 9mn 11s
Bit rate : 193 Kbps
Width : 176 pixels
Height : 144 pixels
Display aspect ratio : 1.222
Frame rate : 12.000 fps
Bits/(Pixel*Frame) : 0.633
Stream size : 12.7 MiB (76%)

Audio
Format : MPEG Audio
Format version : Version 2
Format profile : Layer 3
Duration : 9mn 11s
Bit rate mode : Constant
Bit rate : 56.0 Kbps
Channel(s) : 1 channel
Sampling rate : 22.05 KHz
Resolution : 16 bits
Stream size : 3.92 MiB (23%)
